<?xml version="1.0" standalone="no"?><!DOCTYPE svg PUBLIC "-//W3C//DTD SVG 1.1//EN" "http://www.w3.org/Graphics/SVG/1.1/DTD/svg11.dtd"><svg t="1676036161629" class="icon" viewBox="0 0 1024 1024" version="1.1" xmlns="http://www.w3.org/2000/svg" p-id="6647" xmlns:xlink="http://www.w3.org/1999/xlink" width="256" height="256"><path d="M658.285714 73.142857a146.285714 146.285714 0 0 1 146.285715 146.285714v177.956572l-247.808 252.379428c-7.168 7.314286-11.702857 16.713143-13.056 26.733715l-0.402286 5.083428-2.669714 110.445715c0.036571 6.070857 4.388571 11.081143 10.093714 12.214857l2.523428 0.256 108.141715-0.731429c10.715429-0.073143 21.028571-3.803429 29.257143-10.459428l3.986285-3.584L804.571429 677.741714V804.571429a146.285714 146.285714 0 0 1-146.285715 146.285714H219.428571a146.285714 146.285714 0 0 1-146.285714-146.285714V219.428571a146.285714 146.285714 0 0 1 146.285714-146.285714h438.857143z m125.586286 399.140572l90.477714 90.514285-191.451428 191.488a31.341714 31.341714 0 0 1-17.92 8.886857l-80.091429 11.081143a10.971429 10.971429 0 0 1-12.361143-12.361143l10.971429-80.237714a31.341714 31.341714 0 0 1 8.886857-17.92l191.488-191.451428zM365.714286 658.285714H256a36.571429 36.571429 0 0 0-4.278857 72.886857L256 731.428571h109.714286a36.571429 36.571429 0 0 0 0-73.142857z m495.725714-211.858285l38.765714 38.765714a36.571429 36.571429 0 0 1 0 51.748571l-12.909714 12.946286-90.514286-90.514286 12.946286-12.946285a36.571429 36.571429 0 0 1 51.712 0zM512 475.428571H256a36.571429 36.571429 0 0 0-4.278857 72.886858L256 548.571429h256a36.571429 36.571429 0 0 0 0-73.142858z m109.714286-182.857142H256a36.571429 36.571429 0 0 0-4.278857 72.886857L256 365.714286h365.714286a36.571429 36.571429 0 0 0 0-73.142857z" fill="#c1cbd8" p-id="6648"></path></svg>