<?xml version="1.0" standalone="no"?><!DOCTYPE svg PUBLIC "-//W3C//DTD SVG 1.1//EN" "http://www.w3.org/Graphics/SVG/1.1/DTD/svg11.dtd"><svg t="1676037710715" class="icon" viewBox="0 0 1024 1024" version="1.1" xmlns="http://www.w3.org/2000/svg" p-id="10521" xmlns:xlink="http://www.w3.org/1999/xlink" width="256" height="256"><path d="M480 896v32H128a32 32 0 0 1-32-32V128a32 32 0 0 1 32-32h736a32 32 0 0 1 32 32v384h-32V128H128v768h352z m124.288-480.16L704 469.28v17.12l-17.92 9.568-115.744-62.016L496 473.6v270.976L224 608v-288l256-128 256 128v192h-80l30.08-16.032-115.744-62.016 33.92-18.112L704 469.28v-106.624l-99.712 53.184zM274.016 496l116.064-61.824L274.016 496l189.984 101.344V473.6l-73.92-39.424L274.016 496z m-5.056-162.688L480 445.856l211.04-112.544L480 227.776l-211.04 105.536zM464 633.6L256 522.656v65.568l208 104V633.6zM256 362.944v106.4l100.48-53.28L256 362.944zM576 576h320a32 32 0 0 1 32 32v320a32 32 0 0 1-32 32H576a32 32 0 0 1-32-32V608a32 32 0 0 1 32-32z m0 32v320h320V608H576z m64 64v-32h32v32h32v32h-32v32h-32v-32h-32v-32h32z m128 0h96v32h-96v-32z m-160 128h32v32h-32v-32z m64 0h32v32h-32v-32z m-32 32h32v32h-32v-32z m-32 32h32v32h-32v-32z m64 0h32v32h-32v-32z m96-64h96v32h-96v-32z m0 64h96v32h-96v-32z" fill="#c1cbd8" p-id="10522"></path></svg>