<?xml version="1.0" standalone="no"?><!DOCTYPE svg PUBLIC "-//W3C//DTD SVG 1.1//EN" "http://www.w3.org/Graphics/SVG/1.1/DTD/svg11.dtd"><svg t="1676035960154" class="icon" viewBox="0 0 1024 1024" version="1.1" xmlns="http://www.w3.org/2000/svg" p-id="4219" xmlns:xlink="http://www.w3.org/1999/xlink" width="256" height="256"><path d="M838.4 736c12.8-38.4 19.2-76.8 19.2-121.6 0-185.6-300.8-531.2-339.2-569.6L512 38.4l-6.4 6.4c-32 38.4-339.2 384-339.2 569.6 0 204.8 153.6 371.2 345.6 371.2 147.2 0 275.2-102.4 326.4-249.6zM512 70.4c121.6 140.8 320 403.2 320 544v32c-6.4-12.8-12.8-25.6-25.6-38.4-115.2-128-268.8 0-313.6 38.4-70.4 57.6-249.6-38.4-300.8-64 32-147.2 204.8-384 320-512z" fill="#c1cbd8" p-id="4220"></path></svg>