<?xml version="1.0" standalone="no"?><!DOCTYPE svg PUBLIC "-//W3C//DTD SVG 1.1//EN" "http://www.w3.org/Graphics/SVG/1.1/DTD/svg11.dtd"><svg t="1676037402879" class="icon" viewBox="0 0 1024 1024" version="1.1" xmlns="http://www.w3.org/2000/svg" p-id="8169" xmlns:xlink="http://www.w3.org/1999/xlink" width="256" height="256"><path d="M842.24 204.42L552.9 74a101 101 0 0 0-82-0.38L182.66 200.31a100.88 100.88 0 0 0-60.27 92.32V539.4c0 90.1 33 175.65 93 240.9 5.63 6.12 11.34 11.89 17 17.13 42.33 39.47 164.21 110.06 233.09 148.63a100.2 100.2 0 0 0 98.45 0.05C625 912 735.87 847.31 792.25 796.9c11.15-10 23-23 35.1-38.62 47.79-61.61 74.14-139.07 74.18-218.12l0.13-243.73a101 101 0 0 0-59.42-92.01z m11.29 335.71c0 68.46-22.8 135.49-64.11 188.73-10.36 13.36-20.18 24.21-29.17 32.25-52.93 47.34-160.38 110-219.72 143.09a52.53 52.53 0 0 1-51.6 0C374.92 840.34 293.32 788.63 265 762.3c-4.73-4.41-9.56-9.28-14.35-14.49-51.82-56.36-80.36-130.37-80.34-208.41V292.64A52.88 52.88 0 0 1 202 244.25l288.17-126.69a52.93 52.93 0 0 1 43 0.2l289.35 130.42a53 53 0 0 1 31.14 48.23z" fill="#c1cbd8" p-id="8170"></path><path d="M678.64 410a166.16 166.16 0 0 0-166.15-165.54h-0.65v0.06a166.17 166.17 0 0 0-33.06 329l-0.14 86.54v2l0.14 1.92v90.4c0 15.42 14.89 28 33.23 28l6-0.46c15.49-2.33 27.26-13.83 27.26-27.52v-58.68h63.47a33.42 33.42 0 0 0 33.24-33.63l-0.53-6.05a33.4 33.4 0 0 0-32.71-27.59l-63.47-0.06v-54.84A166.17 166.17 0 0 0 678.64 410zM535.75 526.49l-23.9 4.8-23.56-4.78a118.17 118.17 0 0 1 23.55-234h4.71a118.17 118.17 0 0 1 19.2 234z" fill="#c1cbd8" p-id="8171"></path></svg>